<svg xmlns="http://www.w3.org/2000/svg" viewBox="0 0 24 25" fill="#FFFFFF" x="0px" y="0px" ><path d="M13.4 12.6C12.989 12.8814 12.4977 13.0218 12 13C11.5023 13.0218 11.0111 12.8814 10.6 12.6L1.47444e-05 6.9V17C1.47444e-05 17.7956 0.316085 18.5587 0.878694 19.1213C1.4413 19.6839 2.20437 20 3.00001 20H21C21.7957 20 22.5587 19.6839 23.1213 19.1213C23.6839 18.5587 24 17.7956 24 17V6.9L13.4 12.6Z" fill="#FFFFFF"/><path d="M21 0H3.00001C2.20437 0 1.4413 0.316071 0.878694 0.87868C0.316085 1.44129 1.47444e-05 2.20435 1.47444e-05 3V4C-0.000940771 4.18032 0.0445606 4.35785 0.132135 4.51549C0.219709 4.67312 0.346405 4.80555 0.500015 4.9L11.5 10.9C11.6536 10.9808 11.8272 11.0156 12 11C12.1728 11.0156 12.3465 10.9808 12.5 10.9L23.5 4.9C23.6536 4.80555 23.7803 4.67312 23.8679 4.51549C23.9555 4.35785 24.001 4.18032 24 4V3C24 2.20435 23.6839 1.44129 23.1213 0.87868C22.5587 0.316071 21.7957 0 21 0Z" /></svg>